<svg xmlns="http://www.w3.org/2000/svg" viewBox="0 0 1000 1000"><defs><style>.a{fill:#263238;}.b{fill:#fff;}</style></defs><title>favicon</title><rect class="a" width="1000" height="1000"/><path class="b" d="M242.92,745.69q-22.33,0-38.92-4.68V686.14a129.2,129.2,0,0,0,31.05,4.25q21.69,0,31.05-13.5t9.36-42.22V343.31h65.93V634.25q0,54.43-24.89,82.94T242.92,745.69Z"/><path class="b" d="M722.49,654.24H647.42L605.31,490.91q-2.34-8.73-8-36.05t-6.48-36.69q-1.27,11.49-6.38,36.9t-7.87,36.26L534.7,654.24H459.84L380.52,343.31h64.86L485.15,513q10.43,47,15.1,81.46,1.28-12.12,5.85-37.54t8.61-39.45L560,343.31h62.31l45.3,174.18q3,11.7,7.45,35.73t6.8,41.26q2.13-16.59,6.81-41.37t8.5-40.09l39.56-169.71h64.87Z"/></svg>