<svg xmlns="http://www.w3.org/2000/svg" viewBox="0 0 1000 1000">
    <defs>
        <style>.a{fill:#263238;}.b{fill:#fff;}</style>
    </defs>
    <title>favicon</title>
    <rect class="a" width="1000" height="1000"/>
    <path class="b"
          d="M232.44,721q-23.2,0-40.44-4.86v-57a133.85,133.85,0,0,0,32.26,4.42q22.55,0,32.26-14t9.72-43.86V303h68.5V605.26q0,56.57-25.85,86.17T232.44,721Z"/>
    <path class="b"
          d="M730.71,626h-78L609,456.33q-2.43-9.06-8.29-37.45t-6.73-38.12q-1.34,11.92-6.63,38.34t-8.18,37.67L535.6,626H457.82L375.4,303h67.39l41.33,176.33q10.81,48.84,15.68,84.63,1.33-12.6,6.08-39t9-41l47.06-181h64.75L673.7,484q3.09,12.15,7.74,37.12t7.07,42.87q2.21-17.24,7.07-43t8.84-41.65L745.52,303h67.39Z"/>
</svg>